#!OML:ASF E:\Steps\Project 1\Capture day 1\Session 2\Subject.ASF
:FULLY-SPECIFIED
:DEGREES
125
root 16.8671 17.9698 20.9023 -156.378 -3.5012 177.124
lowerback -29.3181 -1.89775 -7.84636
upperback 0.281856 -0.22145 0.0387737
thorax 15.8799 -0.882642 4.18976
lowerneck -5.66182 -0.0132571 -0.930638
upperneck 16.7199 -1.32726 4.08123
head 6.01704 -0.697874 1.3225
rclavicle 3.72721e-015 -2.67365e-014
rhumerus -37.8752 -18.3949 -76.5076
rradius 33.9495
rwrist -2.38006
rhand -4.95248 -52.0078
rfingers 7.12502
rthumb 20.8391 -80.9087
lclavicle 3.72721e-015 -2.67365e-014
lhumerus -30.715 4.67557 80.7486
lradius 26.2513
lwrist -3.68965
lhand -21.8944 -12.6631
lfingers 7.12502
lthumb 4.5107 17.2689
rfemur -20.2187 3.25443 21.2854
rtibia 5.81204
rfoot -18.053 -2.56105
rtoes -17.655
lfemur -23.6709 -10.3948 -21.3895
ltibia 11.159
lfoot -6.77821 -1.69633
ltoes -23.5721
126
root 16.8703 17.9708 20.9122 -156.375 -3.6448 177.127
lowerback -29.1518 -1.8773 -7.79102
upperback 0.268626 -0.225227 0.0384862
thorax 15.7871 -0.874502 4.16026
lowerneck -5.38042 0.17409 -1.17048
upperneck 16.7984 -1.1351 4.44726
head 5.98928 -0.607008 1.49113
rclavicle -1.71452e-015 -1.78906e-014
rhumerus -37.9257 -18.5446 -76.4267
rradius 34.1453
rwrist -2.33498
rhand -4.22484 -52.5691
rfingers 7.12502
rthumb 21.538 -81.3915
lclavicle -1.71452e-015 -1.78906e-014
lhumerus -30.758 4.25868 80.8797
lradius 26.5875
lwrist -3.42556
lhand -21.8706 -13.0408
lfingers 7.12502
lthumb 4.53372 16.8907
rfemur -20.2448 3.28738 21.3153
rtibia 5.81518
rfoot -18.0471 -2.73462
rtoes -17.6355
lfemur -23.8819 -10.4466 -21.3385
ltibia 11.4505
lfoot -6.82513 -1.76278
ltoes -23.6568
127
root 16.8698 17.9727 20.916 -156.416 -3.66415 177.126
lowerback -29.0237 -1.83028 -7.71794
upperback 0.283522 -0.190361 0.0188744
thorax 15.7406 -0.84918 4.11531
lowerneck -5.3418 0.207797 -1.07731
upperneck 17.1077 -1.13195 4.35916
head 6.07934 -0.616394 1.44805
rclavicle 1.95306e-014 -4.47266e-015
rhumerus -37.9655 -18.4454 -76.4172
rradius 34.2437
rwrist -2.45997
rhand -3.82963 -50.8601
rfingers 7.12502
rthumb 21.9176 -79.6386
lclavicle 1.95306e-014 -4.47266e-015
lhumerus -30.7243 3.99392 80.955
lradius 26.8248
lwrist -3.15876
lhand -21.8319 -13.1652
lfingers 7.12502
lthumb 4.57106 16.7655
rfemur -20.2216 3.30491 21.306
rtibia 5.82825
rfoot -18.0576 -2.81268
rtoes -17.7945
lfemur -23.9353 -10.4838 -21.3373
ltibia 11.5782
lfoot -6.75747 -1.75796
ltoes -23.1238
128
root 16.8679 17.9755 20.9166 -156.437 -3.63662 177.129
lowerback -29.015 -1.74588 -7.65689
upperback 0.323972 -0.089629 -0.00505345
thorax 15.7725 -0.799458 4.09746
lowerneck -5.48648 0.00716213 -0.765329
upperneck 17.5569 -1.44994 4.04945
head 6.25341 -0.781505 1.2755
rclavicle -2.6339e-015 -3.0911e-014
rhumerus -38.0926 -17.8549 -76.7129
rradius 34.5069
rwrist -2.1057
rhand -4.60734 -52.0555
rfingers 7.12502
rthumb 21.1706 -80.9196
lclavicle -2.6339e-015 -3.0911e-014
lhumerus -30.6822 3.65334 81.0797
lradius 27.0838
lwrist -2.93213
lhand -21.9844 -13.1689
lfingers 7.12502
lthumb 4.4238 16.7649
rfemur -20.2337 3.33871 21.273
rtibia 5.85953
rfoot -18.0605 -2.84075
rtoes -17.8762
lfemur -23.8829 -10.5961 -21.3151
ltibia 11.4546
lfoot -6.59371 -1.60935
ltoes -22.4306
129
root 16.8696 17.9765 20.9211 -156.442 -3.72072 177.139
lowerback -28.9549 -1.71998 -7.62061
upperback 0.409587 -0.0597477 0.0242974
thorax 15.8439 -0.784146 4.12529
lowerneck -5.61026 0.00450014 -0.758273
upperneck 17.5936 -1.45214 4.05685
head 6.2868 -0.777313 1.27656
rclavicle 1.22253e-014 -4.37326e-015
rhumerus -38.0744 -18.139 -76.3817
rradius 34.4473
rwrist -2.71798
rhand -3.98462 -50.1219
rfingers 7.12502
rthumb 21.7687 -78.9177
lclavicle 1.22253e-014 -4.37326e-015
lhumerus -30.5754 3.3536 81.2608
lradius 27.4067
lwrist -2.69127
lhand -22.3038 -13.4484
lfingers 7.12502
lthumb 4.11543 16.4916
rfemur -20.19 3.33206 21.2924
rtibia 5.77796
rfoot -18.0177 -2.89289
rtoes -17.8659
lfemur -23.9382 -10.7435 -21.2498
ltibia 11.4933
lfoot -6.56315 -1.52316
ltoes -21.0973
130
root 16.8724 17.9767 20.9261 -156.472 -3.85711 177.14
lowerback -28.871 -1.74698 -7.62383
upperback 0.469792 -0.095746 0.078392
thorax 15.8819 -0.800821 4.17511
lowerneck -5.26351 0.380332 -0.979158
upperneck 17.3539 -0.930585 4.29079
head 6.13703 -0.52561 1.42395
rclavicle -4.82053e-015 1.80894e-014
rhumerus -38.0203 -17.5531 -76.7568
rradius 34.8849
rwrist -2.42784
rhand -3.25218 -55.8086
rfingers 7.12502
rthumb 22.4719 -84.5211
lclavicle -4.82053e-015 1.80894e-014
lhumerus -30.643 3.20436 81.4037
lradius 27.8489
lwrist -2.54551
lhand -22.3756 -13.8535
lfingers 7.12502
lthumb 4.0461 16.0878
rfemur -20.088 3.32858 21.3201
rtibia 5.65651
rfoot -18.0138 -2.9858
rtoes -17.5281
lfemur -24.0397 -10.8955 -21.1941
ltibia 11.7151
lfoot -6.6719 -1.51935
ltoes -20.2356
131
root 16.8744 17.9762 20.9314 -156.446 -3.9752 177.091
lowerback -28.8556 -1.75952 -7.64717
upperback 0.523469 -0.0968915 0.0862394
thorax 15.939 -0.804117 4.19752
lowerneck -5.21993 0.530068 -1.02386
upperneck 17.5414 -0.775123 4.43316
head 6.18433 -0.450309 1.48738
rclavicle 1.15419e-014 1.68967e-015
rhumerus -37.9417 -18.2436 -76.2429
rradius 34.4774
rwrist -2.8616
rhand -4.24843 -47.7328
rfingers 7.12502
rthumb 21.5154 -76.5578
lclavicle 1.15419e-014 1.68967e-015
lhumerus -30.7007 3.03804 81.5229
lradius 28.2518
lwrist -2.51007
lhand -22.0368 -13.9113
lfingers 7.12502
lthumb 4.37322 16.0235
rfemur -20.1347 3.45495 21.2647
rtibia 5.69156
rfoot -18.1061 -3.23699
rtoes -16.9138
lfemur -24.1652 -10.9528 -21.2223
ltibia 11.8673
lfoot -6.68176 -1.60881
ltoes -21.1672
132
root 16.8736 17.9754 20.9357 -156.428 -4.03425 177.038
lowerback -28.809 -1.70023 -7.60429
upperback 0.534652 -0.0286042 0.048715
thorax 15.9215 -0.767954 4.16102
lowerneck -5.39839 0.310417 -0.947031
upperneck 17.9311 -1.16359 4.54538
head 6.3513 -0.633318 1.48388
rclavicle -3.18055e-015 7.60351e-015
rhumerus -37.9403 -17.7237 -76.6651
rradius 34.8167
rwrist -2.36438
rhand -4.33363 -54.616
rfingers 7.12502
rthumb 21.4335 -83.4504
lclavicle -3.18055e-015 7.60351e-015
lhumerus -30.7577 2.80264 81.6183
lradius 28.5279
lwrist -2.50111
lhand -21.6901 -13.5563
lfingers 7.12502
lthumb 4.70797 16.3714
rfemur -20.173 3.51273 21.1963
rtibia 5.72657
rfoot -18.1937 -3.37671
rtoes -16.5888
lfemur -24.3139 -10.9722 -21.2917
ltibia 12.0933
lfoot -6.73927 -1.65965
ltoes -21.5956
133
root 16.8721 17.9759 20.9395 -156.489 -4.16755 177.045
lowerback -28.6555 -1.65606 -7.50942
upperback 0.552109 -0.0071166 0.0426017
thorax 15.8678 -0.74634 4.11371
lowerneck -5.41072 0.18482 -0.767821
upperneck 18.3346 -1.38134 4.32433
head 6.48693 -0.755204 1.36782
rclavicle -8.7838e-015 8.64713e-015
rhumerus -38.1132 -17.9933 -76.3215
rradius 34.7335
rwrist -3.41485
rhand -4.20885 -54.5617
rfingers 7.12502
rthumb 21.5534 -83.3824
lclavicle -8.7838e-015 8.64713e-015
lhumerus -30.7875 2.49533 81.7091
lradius 28.7875
lwrist -2.44051
lhand -21.5635 -13.3119
lfingers 7.12502
lthumb 4.83024 16.613
rfemur -20.0185 3.30439 21.2464
rtibia 5.58429
rfoot -18.1553 -3.2674
rtoes -16.7648
lfemur -24.4252 -11.0612 -21.2808
ltibia 12.4071
lfoot -6.83452 -1.69706
ltoes -20.9801
134
root 16.8712 17.978 20.9477 -156.495 -4.35601 177.038
lowerback -28.5166 -1.65676 -7.45774
upperback 0.608513 -0.0247662 0.0502308
thorax 15.8721 -0.747384 4.09004
lowerneck -5.40494 0.211568 -0.409055
upperneck 18.6505 -1.31315 3.70591
head 6.58077 -0.751296 1.1148
rclavicle -9.21864e-015 2.43511e-014
rhumerus -38.0048 -17.5321 -76.6858
rradius 34.8359
rwrist -3.11845
rhand -4.86257 -52.883
rfingers 7.12502
rthumb 20.9255 -81.7743
lclavicle -9.21864e-015 2.43511e-014
lhumerus -30.6887 2.29006 81.7864
lradius 29.0395
lwrist -2.41132
lhand -21.3913 -13.2807
lfingers 7.12502
lthumb 4.99656 16.6404
rfemur -19.9809 3.07364 21.2921
rtibia 5.51112
rfoot -18.0871 -3.19945
rtoes -17.1285
lfemur -24.6238 -11.1918 -21.2463
ltibia 12.709
lfoot -6.74927 -1.79599
ltoes -19.4593
135
root 16.8718 17.9803 20.9565 -156.423 -4.47249 177.008
lowerback -28.4713 -1.66819 -7.47146
upperback 0.662638 -0.0339041 0.0886336
thorax 15.9169 -0.753717 4.1383
lowerneck -5.5433 0.212672 -0.258743
upperneck 18.9207 -1.29429 3.372
head 6.68906 -0.758853 0.983706
rclavicle -3.41661e-016 1.85367e-014
rhumerus -37.7058 -17.6311 -76.6391
rradius 34.5321
rwrist -2.65829
rhand -5.477 -64.7827
rfingers 7.12502
rthumb 20.335 93.7381
lclavicle -3.41661e-016 1.85367e-014
lhumerus -30.5898 2.32135 81.8917
lradius 29.2522
lwrist -2.51601
lhand -21.5178 -13.1434
lfingers 7.12502
lthumb 4.87443 16.7806
rfemur -20.1268 3.1709 21.2434
rtibia 5.57683
rfoot -18.1035 -3.37725
rtoes -16.8907
lfemur -24.9134 -11.2516 -21.2403
ltibia 13.0192
lfoot -6.68887 -1.89854
ltoes -18.5566
136
root 16.8702 17.9823 20.959 -156.441 -4.54675 176.999
lowerback -28.4193 -1.62376 -7.42404
upperback 0.721933 0.0136198 0.105326
thorax 15.9579 -0.729257 4.15216
lowerneck -5.5228 0.148708 -0.290142
upperneck 19.0488 -1.415 3.44103
head 6.7296 -0.819247 1.00178
rclavicle 8.2185e-015 -6.33626e-015
rhumerus -37.6307 -17.7085 -76.5412
rradius 34.5047
rwrist -2.4624
rhand -5.3674 -60.4493
rfingers 7.12502
rthumb 20.4404 270.607
lclavicle 8.2185e-015 -6.33626e-015
lhumerus -30.5917 2.12548 82.0528
lradius 29.4539
lwrist -2.51351
lhand -22.053 -13.0953
lfingers 7.12502
lthumb 4.35754 16.8398
rfemur -20.1253 3.35491 21.1855
rtibia 5.60541
rfoot -18.1418 -3.55532
rtoes -16.1803
lfemur -25.0519 -11.406 -21.2211
ltibia 13.283
lfoot -6.75326 -1.82746
ltoes -18.2452
137
root 16.8659 17.9832 20.9624 -156.358 -4.58766 176.897
lowerback -28.4403 -1.58516 -7.42124
upperback 0.739101 0.0750007 0.0533986
thorax 15.9803 -0.701009 4.11775
lowerneck -5.26327 0.250629 -0.524968
upperneck 18.9864 -1.3559 3.95355
head 6.666 -0.777429 1.20987
rclavicle 2.07854e-014 -2.89232e-014
rhumerus -37.7358 -17.4471 -76.6266
rradius 34.6952
rwrist -2.82257
rhand -5.09083 -51.8536
rfingers 7.12502
rthumb 20.7061 279.231
lclavicle 2.07854e-014 -2.89232e-014
lhumerus -30.6219 1.75558 82.1282
lradius 29.6368
lwrist -2.22122
lhand -22.179 -13.4033
lfingers 7.12502
lthumb 4.23589 16.5343
rfemur -20.2223 3.2547 21.0611
rtibia 5.65044
rfoot -18.1765 -3.54726
rtoes -15.9057
lfemur -25.2948 -11.6632 -21.2938
ltibia 13.5434
lfoot -6.76164 -1.64588
ltoes -18.0273
138
root 16.8622 17.9846 20.9664 -156.261 -4.67414 176.775
lowerback -28.45 -1.61531 -7.46593
upperback 0.751104 0.0539042 0.0450537
thorax 16.0013 -0.714222 4.1245
lowerneck -4.92124 0.539616 -1.01081
upperneck 18.6675 -1.00759 4.67006
head 6.49717 -0.59273 1.5454
rclavicle 7.30223e-015 4.39811e-015
rhumerus -37.8284 -17.2745 -76.5764
rradius 34.6764
rwrist -2.9839
rhand -4.00618 -55.6788
rfingers 7.12502
rthumb 21.748 275.523
lclavicle 7.30223e-015 4.39811e-015
lhumerus -30.6204 1.59007 82.1585
lradius 29.7479
lwrist -1.96696
lhand -21.9754 -13.8445
lfingers 7.12502
lthumb 4.43251 16.0892
rfemur -20.3242 3.05579 20.9531
rtibia 5.66112
rfoot -18.0902 -3.597
rtoes -16.1133
lfemur -25.6061 -11.7934 -21.4091
ltibia 13.8913
lfoot -6.72745 -1.60576
ltoes -17.8199
139
root 16.8603 17.9883 20.9704 -156.289 -4.78888 176.697
lowerback -28.2985 -1.63153 -7.48903
upperback 0.781027 0.0326468 0.068441
thorax 15.9672 -0.722749 4.15682
lowerneck -4.801 0.684829 -1.21062
upperneck 18.5825 -0.806511 4.84127
head 6.44249 -0.497193 1.64742
rclavicle 6.18096e-016 1.90647e-014
rhumerus -37.833 -17.2628 -76.4504
rradius 34.5893
rwrist -2.77542
rhand -5.31083 -52.8011
rfingers 7.12502
rthumb 20.4947 278.261
lclavicle 6.18096e-016 1.90647e-014
lhumerus -30.62 1.50775 82.2467
lradius 29.8443
lwrist -1.95911
lhand -21.8498 -14.0699
lfingers 7.12502
lthumb 4.55379 15.8612
rfemur -20.2827 3.12534 20.8426
rtibia 5.59243
rfoot -17.8306 -3.76858
rtoes -15.6706
lfemur -25.8425 -11.8515 -21.4835
ltibia 14.3325
lfoot -6.75213 -1.67206
ltoes -16.9328
